<svg id="Layer_1" enable-background="new 0 0 510 510" height="512" viewBox="0 0 510 510" width="512" xmlns="http://www.w3.org/2000/svg"><g><path d="m60 330h30v30h-30z"/><path d="m120 330h30v30h-30z"/><path d="m420 0v30h-90v-30h-150v30h-90v-30h-90v450h60v60h390v-60h60c0-22.814 0-441.257 0-450zm-210 30h90v30h-90zm-30 30v30h60v30h30v-30h60v-30h90v210h-45v-60h-240v60h-45v-210zm165 210h-180v-30h180zm-315-240h30v240h-30zm390 450h-330v-30h330zm60-150h-180v30h180v60c-16.538 0-435.228 0-450 0v-120h450zm-30-60v-240h30v240z"/></g></svg>