<svg id="Capa_1" enable-background="new 0 0 512 512" height="512" viewBox="0 0 512 512" width="512" xmlns="http://www.w3.org/2000/svg"><g><g><path d="m358.222 75.75h-21.475c-2.056-4.345-4.45-8.499-7.17-12.441l10.731-18.587c3.529-6.112 1.435-13.927-4.677-17.455l-44.263-25.555c-2.935-1.695-6.424-2.153-9.696-1.277-3.273.878-6.064 3.019-7.758 5.954l-10.714 18.557c-4.835-.411-9.565-.411-14.4 0l-10.714-18.557c-1.695-2.935-4.486-5.076-7.758-5.954-3.272-.876-6.761-.418-9.696 1.277l-44.263 25.556c-6.112 3.528-8.206 11.343-4.677 17.455l10.731 18.588c-2.72 3.941-5.114 8.096-7.17 12.44h-21.475c-7.057 0-12.778 5.721-12.778 12.778v51.111c0 7.057 5.721 12.778 12.778 12.778h21.475c2.056 4.343 4.45 8.498 7.17 12.439l-10.731 18.588c-3.529 6.112-1.435 13.927 4.677 17.455l44.263 25.556c2.934 1.695 6.422 2.152 9.696 1.277 3.273-.878 6.064-3.019 7.758-5.954l10.714-18.559c4.835.413 9.565.413 14.4 0l10.714 18.557c1.695 2.935 4.486 5.076 7.758 5.954 1.088.291 2.2.435 3.308.435 2.224 0 4.43-.581 6.389-1.712l44.263-25.556c6.112-3.528 8.206-11.343 4.677-17.455l-10.731-18.587c2.72-3.941 5.114-8.095 7.17-12.44h21.475c7.057 0 12.778-5.721 12.778-12.778v-12.778-25.556-12.776c-.001-7.057-5.722-12.778-12.779-12.778zm-102.222 75.833c-20.679 0-37.5-16.821-37.5-37.5s16.821-37.5 37.5-37.5 37.5 16.821 37.5 37.5-16.821 37.5-37.5 37.5z"/><path d="m80 161.905v-32.823h31v-30h-46c-8.284 0-15 6.716-15 15v47.823c-11.629 2.734-22.304 8.634-30.962 17.293-12.277 12.276-19.038 28.599-19.038 45.961s6.761 33.686 19.038 45.962c5.857 5.857 15.355 5.857 21.213 0s5.858-15.355 0-21.213c-13.646-13.646-13.646-35.852 0-49.498 6.611-6.61 15.4-10.251 24.749-10.251s18.138 3.641 24.749 10.251c13.646 13.646 13.646 35.852 0 49.498-5.858 5.857-5.858 15.355 0 21.213 2.929 2.929 6.768 4.394 10.606 4.394s7.678-1.465 10.606-4.394c12.277-12.276 19.038-28.6 19.038-45.962s-6.761-33.686-19.038-45.962c-8.657-8.658-19.332-14.558-30.961-17.292z"/><path d="m492.962 179.197c-8.658-8.659-19.333-14.558-30.962-17.293v-47.823c0-8.284-6.716-15-15-15h-46v30h31v32.823c-11.629 2.734-22.304 8.634-30.962 17.293-12.277 12.277-19.038 28.6-19.038 45.962s6.761 33.686 19.038 45.962c5.857 5.857 15.355 5.857 21.213 0s5.858-15.355 0-21.213c-13.646-13.646-13.646-35.852 0-49.498 6.611-6.61 15.4-10.251 24.749-10.251s18.138 3.641 24.749 10.251c13.646 13.646 13.646 35.852 0 49.498-5.858 5.857-5.858 15.355 0 21.213 2.929 2.929 6.768 4.394 10.606 4.394s7.678-1.465 10.606-4.394c12.277-12.276 19.038-28.6 19.038-45.962s-6.76-33.685-19.037-45.962z"/></g><circle cx="41" cy="472" r="40"/><circle cx="256" cy="472" r="40"/><path d="m313.396 432c7.932 11.348 12.604 25.135 12.604 40s-4.672 28.652-12.604 40h100.208c-7.932-11.348-12.604-25.135-12.604-40s4.672-28.652 12.604-40z"/><path d="m98.396 432c7.932 11.348 12.604 25.135 12.604 40s-4.672 28.652-12.604 40h100.208c-7.932-11.348-12.604-25.135-12.604-40s4.672-28.652 12.604-40z"/><circle cx="471" cy="472" r="40"/><path d="m293.5 312h-75c-8.284 0-15 6.716-15 15v75h105v-75c0-8.284-6.716-15-15-15z"/><path d="m143.5 312h-75c-8.284 0-15 6.716-15 15v75h105v-75c0-8.284-6.716-15-15-15z"/><path d="m368.5 312c-8.284 0-15 6.716-15 15v75h105v-75c0-8.284-6.716-15-15-15z"/></g></svg>