<svg id="Layer_5" enable-background="new 0 0 64 64" height="512" viewBox="0 0 64 64" width="512" xmlns="http://www.w3.org/2000/svg"><g><path d="m13 35h2v4h-2z"/><path d="m13 31h2v2h-2z"/><path d="m16 21.547v-2.547h-12c-.551 0-1 .449-1 1v9h4.497c1.192-3.563 4.445-6.333 8.503-7.453z"/><path d="m22 21.139v-2.139h-4v2.139c.655-.087 1.322-.139 2-.139.679 0 1.345.052 2 .139z"/><path d="m7 55.142v-4.142h-2v4.142c.322-.084.653-.142 1-.142s.678.058 1 .142z"/><path d="m22.5 17 8.5-11.333v-2.667h-22v2.667l8.5 11.333z"/><path d="m16 23.627c-2.933.943-5.286 2.891-6.362 5.373h6.362z"/><path d="m3 31h8v2h-8z"/><path d="m24 23.626v5.374h6.362c-1.076-2.483-3.428-4.431-6.362-5.374z"/><path d="m25 35h2v4h-2z"/><path d="m25 31h2v2h-2z"/><path d="m18 29h4v-5.847c-.651-.099-1.319-.153-2-.153s-1.349.054-2 .153z"/><path d="m17 31h6v2h-6z"/><path d="m17 35h6v4h-6z"/><circle cx="6" cy="59" r="2"/><circle cx="58" cy="59" r="2"/><path d="m59 55.142v-4.142h-2v4.142c.322-.084.653-.142 1-.142s.678.058 1 .142z"/><path d="m11 35h-8v13c0 .552.449 1 1 1h5v-10h2z"/><path d="m60 13h-20c-.551 0-1 .449-1 1v1h22v-1c0-.551-.449-1-1-1z"/><path d="m39 49h21c.551 0 1-.448 1-1v-31h-22zm9-9c-1.105 0-2-.895-2-2s.895-2 2-2 2 .895 2 2-.895 2-2 2zm8 0c-1.105 0-2-.895-2-2s.895-2 2-2 2 .895 2 2-.895 2-2 2zm-14-20h16v4h-8.535l-1.341 2.012-1.506-3.012h-4.618zm0 5h3.382l2.494 4.988 2.659-3.988h7.465v6h-16z"/><path d="m24 21.547c4.06 1.12 7.312 3.889 8.503 7.453h4.497v-10h-13z"/><path d="m29 31h8v2h-8z"/><path d="m29 55.142c.322-.084.653-.142 1-.142s.678.058 1 .142v-4.142h-2z"/><path d="m11 41h18v8h-18z"/><path d="m29 39h2v10h6v-14h-8z"/><circle cx="30" cy="59" r="2"/></g></svg>