<svg id="bold" height="512" viewBox="0 0 24 24" width="512" xmlns="http://www.w3.org/2000/svg"><path d="m16.67 10.87c.01-.12.02-.24.02-.37s-.01-.25-.02-.37l.83-.61c.5-.37.65-1.06.34-1.6l-.74-1.32c-.31-.56-.99-.78-1.56-.51l-.92.43c-.19-.13-.37-.24-.57-.34l-.1-1.07c-.06-.63-.58-1.11-1.21-1.11h-1.48c-.63 0-1.15.48-1.21 1.11l-.1 1.07c-.2.1-.38.21-.57.34l-.92-.43c-.57-.27-1.25-.04-1.56.51l-.74 1.32c-.31.54-.16 1.23.34 1.6l.83.61c-.01.12-.02.24-.02.37s.01.25.02.37l-.83.61c-.5.37-.65 1.06-.34 1.6l.74 1.32c.31.55.99.78 1.56.51l.92-.43c.19.13.37.24.57.34l.1 1.07c.06.63.58 1.11 1.21 1.11h1.48c.63 0 1.15-.48 1.21-1.11l.1-1.07c.2-.1.38-.21.57-.34l.92.43c.57.27 1.25.05 1.56-.51l.74-1.32c.31-.54.16-1.23-.34-1.6zm-2.17-.37c0 1.38-1.12 2.5-2.5 2.5s-2.5-1.12-2.5-2.5 1.12-2.5 2.5-2.5 2.5 1.12 2.5 2.5z"/><path d="m21 18h-18c-1.654 0-3 1.346-3 3s1.346 3 3 3h18c1.654 0 3-1.346 3-3s-1.346-3-3-3zm-17 4c-.551 0-1-.449-1-1s.449-1 1-1 1 .449 1 1-.449 1-1 1zm5 0c-.551 0-1-.449-1-1s.449-1 1-1 1 .449 1 1-.449 1-1 1zm6 0c-.551 0-1-.449-1-1s.449-1 1-1 1 .449 1 1-.449 1-1 1zm5 0c-.551 0-1-.449-1-1s.449-1 1-1 1 .449 1 1-.449 1-1 1z"/></svg>