<svg enable-background="new 0 0 24 24" height="512" viewBox="0 0 24 24" width="512" xmlns="http://www.w3.org/2000/svg"><path d="m23.685 8.139-11.25-8c-.26-.185-.609-.185-.869 0l-11.25 8c-.198.14-.316.368-.316.611v3.5c0 .281.157.538.406.667.25.128.549.107.778-.055l.816-.581v10.719c0 .552.448 1 1 1h2v-12h14v12h2c.552 0 1-.448 1-1v-10.719l.815.58c.13.092.282.139.435.139.118 0 .235-.028.344-.083.249-.129.406-.386.406-.667v-3.5c0-.243-.118-.471-.315-.611z"/><path d="m6.5 21.5h11v2.5h-11z"/><path d="m6.5 17.5h11v2.5h-11z"/><path d="m6.5 13.5h11v2.5h-11z"/></svg>